<svg id="Layer_1" data-name="Layer 1" xmlns="http://www.w3.org/2000/svg" viewBox="0 0 512 512"><defs><style>.cls-1{fill:#fff;}.cls-2{fill:#f15857;fill-rule:evenodd;}</style></defs><rect class="cls-1" x="105.56" y="68.88" width="309.88" height="375"/><path class="cls-2" d="M256,510.67c140.65,0,254.67-114,254.67-254.67S396.65,1.33,256,1.33,1.33,115.35,1.33,256,115.35,510.67,256,510.67ZM335.45,120c3.87-13.73-9.46-21.86-21.64-13.18L143.86,227.85C130.65,237.26,132.73,256,147,256h44.75v-.35H279l-71.07,25.08L176.55,392c-3.87,13.73,9.46,21.86,21.64,13.18l170-121.07C381.35,274.74,379.27,256,365,256H297.16Z"/></svg>